<svg xmlns="http://www.w3.org/2000/svg" viewBox="0 0 64 64" role="img" aria-label="AutoList 电影藏馆">
  <defs>
    <linearGradient id="tile" x1="0" y1="0" x2="64" y2="64" gradientUnits="userSpaceOnUse">
      <stop stop-color="#b4461b"/>
      <stop offset="1" stop-color="#8a2e10"/>
    </linearGradient>
  </defs>
  <rect width="64" height="64" rx="14" fill="url(#tile)"/>
  <g fill="#fbf6ea" opacity="0.32">
    <rect x="11.5" y="5" width="5" height="3.5" rx="1"/>
    <rect x="20.5" y="5" width="5" height="3.5" rx="1"/>
    <rect x="29.5" y="5" width="5" height="3.5" rx="1"/>
    <rect x="38.5" y="5" width="5" height="3.5" rx="1"/>
    <rect x="47.5" y="5" width="5" height="3.5" rx="1"/>
    <rect x="11.5" y="55.5" width="5" height="3.5" rx="1"/>
    <rect x="20.5" y="55.5" width="5" height="3.5" rx="1"/>
    <rect x="29.5" y="55.5" width="5" height="3.5" rx="1"/>
    <rect x="38.5" y="55.5" width="5" height="3.5" rx="1"/>
    <rect x="47.5" y="55.5" width="5" height="3.5" rx="1"/>
  </g>
  <path fill="#fbf6ea" fill-rule="evenodd" d="M15.5 50 28.3 13.5h7.4L48.5 50h-7.4l-2.8-8.6H25.7L22.9 50h-7.4Zm12.2-15.2h8.6L32 21.6l-4.3 13.2Z"/>
</svg>
